<svg xmlns="http://www.w3.org/2000/svg" width="17" height="17" viewBox="0 0 17 17">
  <defs>
    <style>
      .cls-1 {
        fill-rule: evenodd;
      }
    </style>
  </defs>
  <path class="cls-1" d="M8.5,17A8.5,8.5,0,1,1,17,8.5,8.5,8.5,0,0,1,8.5,17Zm0-2a6.447,6.447,0,0,0,2.173-.4,4.311,4.311,0,0,0-4.342,0A6.443,6.443,0,0,0,8.5,15Zm0-13.007A6.478,6.478,0,0,0,4.4,13.5a6.38,6.38,0,0,1,8.213,0A6.478,6.478,0,0,0,8.5,1.991ZM8.5,11A3.5,3.5,0,1,1,12,7.5,3.5,3.5,0,0,1,8.5,11Zm0-5A1.5,1.5,0,1,0,10,7.5,1.5,1.5,0,0,0,8.5,6Z"/>
</svg>
